<?xml version="1.0" standalone="no"?>
<!DOCTYPE svg PUBLIC "-//W3C//DTD SVG 20010904//EN"
 "http://www.w3.org/TR/2001/REC-SVG-20010904/DTD/svg10.dtd">
<svg version="1.0" xmlns="http://www.w3.org/2000/svg"
 width="500.000000pt" height="500.000000pt" viewBox="0 0 500.000000 500.000000"
 preserveAspectRatio="xMidYMid meet">
<metadata>
Created by potrace 1.11, written by Peter Selinger 2001-2013
</metadata>
<g transform="translate(0.000000,500.000000) scale(0.100000,-0.100000)"
fill="#000000" stroke="none">
<path d="M2364 4756 c5 -13 2 -17 -8 -13 -7 3 -19 0 -26 -6 -10 -9 -11 -9 -5
2 6 10 4 13 -7 8 -9 -3 -21 0 -28 6 -9 8 -11 9 -7 1 4 -7 -2 -14 -14 -17 -15
-4 -19 -2 -15 9 4 12 2 12 -14 4 -11 -6 -33 -10 -50 -10 -16 0 -44 0 -61 0
-22 0 -28 -3 -23 -12 4 -7 -2 -5 -13 5 -13 11 -23 14 -27 8 -4 -5 -16 -8 -27
-6 -14 3 -19 0 -16 -8 3 -7 -3 -13 -14 -13 -14 0 -15 3 -7 13 8 10 7 12 -6 7
-9 -3 -16 -10 -16 -16 0 -5 -5 -6 -10 -3 -6 4 -8 12 -4 18 3 7 -1 4 -8 -5 -15
-17 -33 -19 -57 -4 -10 7 -12 6 -6 -4 6 -10 1 -12 -19 -8 -24 5 -31 -2 -27
-25 1 -5 -3 -6 -9 -2 -6 3 -8 11 -5 16 4 5 -3 9 -15 9 -12 0 -19 -4 -16 -8 8
-13 -27 -11 -43 2 -11 8 -13 8 -7 -1 5 -9 1 -13 -13 -13 -11 0 -22 -4 -26 -10
-8 -13 -36 0 -29 14 3 6 -4 0 -15 -14 -12 -14 -19 -18 -16 -9 5 13 1 16 -22
12 -15 -2 -33 -5 -40 -5 -6 -1 -8 -8 -5 -17 5 -14 3 -14 -11 -2 -9 7 -14 18
-10 24 3 6 1 7 -6 3 -6 -4 -9 -11 -7 -15 3 -4 -9 -9 -27 -10 -59 -4 -77 -7
-84 -16 -5 -4 -3 -5 4 -1 6 3 14 3 17 -2 2 -4 -4 -9 -15 -9 -11 -1 -19 5 -20
15 0 14 -2 15 -7 2 -6 -14 -19 -18 -77 -25 -11 -1 -24 -3 -28 -4 -5 0 -5 -7
-1 -13 5 -10 4 -10 -6 -1 -11 10 -17 9 -32 -4 -12 -10 -18 -12 -18 -4 0 7 -5
9 -10 6 -6 -4 -7 -12 -3 -18 4 -7 -2 -5 -12 3 -11 9 -16 10 -11 3 7 -13 -3
-17 -38 -13 -10 1 -16 -3 -12 -8 3 -5 -6 -7 -21 -4 -18 3 -24 1 -19 -7 5 -7
-2 -11 -21 -12 -15 0 -37 -3 -48 -5 -11 -3 -25 -6 -32 -6 -7 -1 -10 -5 -7 -10
5 -7 -3 -10 -22 -7 -3 0 -13 -8 -21 -18 -14 -17 -14 -17 -8 1 6 19 5 19 -13 3
-10 -9 -22 -14 -27 -10 -4 5 -6 1 -3 -8 4 -9 1 -16 -8 -16 -7 0 -11 3 -9 7 2
4 -2 7 -10 7 -8 0 -12 -4 -9 -9 3 -4 -4 -8 -16 -8 -11 0 -23 -7 -27 -16 -5
-13 -7 -13 -14 -2 -7 10 -9 9 -9 -5 0 -11 -6 -17 -12 -14 -7 2 -19 -3 -26 -12
-12 -14 -13 -14 -8 4 l6 20 -16 -20 c-8 -11 -22 -19 -30 -17 -8 2 -17 -4 -20
-13 -4 -9 -13 -14 -20 -11 -12 5 -18 -5 -16 -25 1 -3 -5 -6 -13 -6 -8 0 -11 5
-8 11 4 6 -1 5 -10 -3 -9 -7 -14 -18 -10 -25 3 -6 3 -8 -1 -4 -10 8 -66 -11
-66 -23 0 -5 -7 -9 -15 -9 -8 0 -15 -7 -15 -16 0 -8 -4 -12 -10 -9 -5 3 -10 1
-10 -5 0 -7 -9 -9 -22 -5 -21 5 -21 5 2 -9 22 -13 23 -15 5 -15 -43 -1 -52 -5
-51 -20 0 -9 -4 -16 -11 -16 -15 0 -28 -13 -28 -28 0 -7 -7 -12 -15 -12 -8 0
-16 -6 -16 -12 -1 -7 -2 -18 -3 -24 0 -5 -5 -8 -10 -5 -11 7 -23 -22 -15 -36
3 -5 -2 -8 -12 -6 -14 2 -19 -3 -18 -19 1 -13 -3 -23 -9 -23 -6 0 -6 -5 1 -13
12 -14 -10 -52 -23 -39 -4 4 -6 -10 -3 -30 2 -20 0 -34 -4 -32 -5 3 -6 -8 -3
-25 3 -20 0 -35 -12 -47 -17 -17 -17 -18 -1 -11 12 4 18 2 18 -9 0 -9 -5 -12
-12 -8 -10 5 -10 4 -1 -6 6 -7 9 -18 6 -25 -2 -8 1 -24 8 -37 12 -22 11 -22
-6 -8 -17 14 -17 14 -7 -6 6 -12 8 -24 5 -28 -3 -3 -1 -6 6 -6 8 0 10 -7 6
-19 -7 -23 4 -73 15 -66 4 2 7 -8 6 -23 -1 -15 6 -35 15 -45 10 -11 14 -28 11
-44 -4 -20 -2 -24 9 -18 12 7 12 6 1 -7 -10 -13 -10 -18 -1 -24 8 -5 9 -3 4 6
-5 9 -4 11 4 6 6 -4 9 -19 7 -33 -4 -19 -2 -23 10 -19 9 3 12 1 9 -4 -3 -6 -1
-10 4 -10 6 0 11 -5 11 -11 0 -5 -5 -7 -12 -3 -7 4 -8 3 -4 -4 4 -7 13 -12 21
-12 15 0 28 -27 18 -42 -3 -7 -1 -8 5 -4 7 4 12 2 12 -4 0 -6 5 -8 12 -4 8 5
9 2 5 -9 -3 -9 -1 -19 5 -23 7 -5 8 -2 4 7 -4 8 2 3 13 -11 14 -16 19 -19 15
-7 -5 13 -2 16 10 11 9 -3 13 -11 9 -18 -4 -6 2 -4 12 4 17 14 18 13 12 -3 -5
-13 -3 -16 6 -10 6 4 20 6 31 4 11 -1 16 2 12 8 -5 7 -1 8 10 4 11 -4 15 -2
11 4 -4 6 3 8 18 5 14 -2 22 -9 19 -16 -3 -6 2 -2 10 8 14 18 21 15 17 -7 -1
-5 3 -6 9 -2 6 3 8 10 5 15 -3 5 11 7 30 6 29 -3 33 -1 24 11 -9 11 -8 12 5 7
17 -7 23 -64 6 -64 -5 0 -10 -5 -10 -11 0 -5 6 -7 13 -4 6 4 5 1 -3 -7 -8 -7
-16 -24 -17 -38 -1 -14 -4 -38 -6 -55 -3 -16 -5 -34 -6 -38 0 -5 -5 -6 -9 -3
-5 3 -8 -5 -7 -17 1 -12 -3 -25 -9 -29 -7 -5 -6 -8 3 -8 11 0 10 -4 -5 -16
-10 -8 -13 -13 -6 -9 13 7 17 -7 5 -19 -4 -4 -8 -19 -9 -34 -3 -55 -9 -87 -19
-94 -6 -5 -5 -8 3 -8 7 0 10 -5 7 -10 -4 -6 -11 -8 -16 -5 -5 4 -9 1 -9 -4 0
-6 8 -11 18 -11 16 -1 16 -1 -1 -11 -9 -5 -17 -17 -17 -25 0 -8 4 -13 9 -9 5
3 13 0 17 -6 4 -8 3 -9 -5 -5 -15 10 -33 -36 -17 -46 7 -5 8 -8 0 -8 -6 0 -10
-19 -10 -46 1 -30 -4 -48 -12 -52 -11 -4 -11 -6 -1 -13 10 -6 10 -11 1 -22 -7
-8 -13 -46 -15 -86 -1 -39 -6 -71 -10 -71 -5 0 -5 5 -2 10 3 6 2 10 -3 10 -5
0 -8 -19 -7 -42 2 -24 -2 -49 -9 -57 -7 -10 -7 -13 0 -8 6 3 11 0 11 -8 0 -8
-4 -12 -9 -9 -4 3 -8 -2 -8 -11 0 -10 -5 -13 -13 -9 -9 6 -9 4 1 -8 10 -13 10
-17 0 -22 -7 -3 -2 -3 12 0 18 4 21 3 11 -4 -8 -6 -10 -15 -6 -22 5 -8 4 -11
-2 -7 -6 4 -13 0 -17 -8 -3 -8 0 -15 6 -15 7 0 7 -4 1 -12 -5 -7 -9 -29 -9
-49 1 -25 -3 -35 -11 -32 -19 7 -16 -8 4 -22 13 -9 13 -14 3 -20 -9 -6 -11 -4
-5 6 7 12 5 12 -6 1 -12 -11 -12 -14 0 -21 9 -6 10 -10 2 -12 -6 -2 -13 -24
-14 -49 -1 -25 -6 -51 -11 -59 -6 -9 -5 -12 0 -8 6 3 10 -4 11 -16 0 -12 -1
-16 -4 -9 -3 6 -8 12 -12 12 -10 0 -6 -44 5 -61 4 -7 3 -10 -3 -6 -6 4 -14 -1
-18 -10 -3 -10 -1 -19 5 -21 8 -3 7 -8 -1 -19 -9 -11 -10 -16 -1 -22 7 -4 8
-12 2 -21 -6 -8 -10 -25 -10 -37 0 -13 -4 -23 -10 -23 -12 0 -9 -22 5 -32 6
-5 5 -8 -2 -8 -9 0 -13 -16 -13 -46 0 -33 -3 -43 -12 -38 -8 5 -7 0 2 -11 9
-11 10 -16 3 -11 -7 4 -13 2 -13 -3 0 -6 6 -11 13 -11 9 0 8 -3 -2 -9 -8 -6
-12 -20 -9 -39 2 -17 1 -29 -4 -26 -5 3 -6 -8 -3 -25 3 -16 1 -33 -5 -36 -6
-4 -7 -13 -1 -23 9 -19 4 -45 -9 -37 -4 3 -6 -11 -4 -30 1 -19 -2 -35 -7 -35
-6 0 -7 -5 -3 -11 3 -6 0 -15 -7 -20 -8 -5 -9 -9 -3 -9 13 0 13 -55 0 -67 -5
-5 -6 -2 -1 6 5 9 4 12 -2 8 -5 -4 -10 -20 -11 -37 0 -21 3 -28 11 -23 9 5 9
3 1 -8 -16 -21 -23 -55 -13 -70 5 -8 2 -23 -6 -36 -11 -16 -12 -23 -2 -26 7
-3 5 -6 -5 -6 -10 -1 -18 -5 -18 -11 0 -5 3 -9 8 -9 21 4 24 -3 6 -16 -12 -10
-14 -13 -3 -10 13 5 15 -5 15 -62 -1 -48 -5 -71 -16 -80 -12 -10 -13 -14 -2
-25 11 -11 12 -10 7 5 -4 9 -3 17 3 17 11 0 9 -31 -3 -50 -3 -6 -1 -10 4 -10
12 0 10 -28 -3 -49 -7 -10 -5 -12 4 -6 8 5 11 3 8 -6 -3 -8 -11 -13 -17 -11
-7 1 -10 -2 -6 -8 3 -6 11 -8 16 -5 5 4 9 1 9 -4 0 -6 -5 -11 -11 -11 -6 0 -3
-7 6 -16 12 -12 13 -19 5 -24 -8 -5 -4 -9 10 -13 13 -3 19 -10 15 -17 -4 -6
-1 -17 5 -25 7 -8 9 -22 6 -31 -6 -14 -4 -15 9 -4 13 11 16 11 13 -1 -2 -8 3
-13 10 -12 6 2 12 -2 12 -8 0 -5 5 -7 10 -4 6 3 10 1 10 -4 0 -12 36 -15 43
-3 2 4 3 2 1 -5 -4 -15 29 -23 50 -11 9 5 16 5 16 0 0 -5 17 -6 39 -2 22 4 45
4 51 0 6 -4 27 -5 47 -3 29 3 34 1 30 -12 -4 -8 -1 -14 5 -12 6 1 12 -11 12
-28 1 -21 7 -31 20 -33 15 -3 16 -6 5 -13 -10 -6 -8 -9 9 -9 13 0 21 4 17 10
-3 5 7 3 22 -5 25 -13 29 -13 35 3 4 9 7 12 7 6 1 -16 47 -24 60 -11 6 6 11 7
11 2 0 -6 60 -9 147 -9 98 1 153 -2 162 -10 11 -8 13 -8 8 1 -5 8 21 11 100
11 68 0 101 -3 92 -9 -8 -5 -9 -9 -4 -9 21 0 37 18 29 31 -7 12 -5 12 9 0 9
-7 15 -17 12 -20 -2 -4 2 -8 10 -8 8 0 12 4 9 8 -7 12 199 8 215 -5 12 -8 13
-8 7 2 -10 16 132 14 153 -2 11 -8 13 -8 8 1 -5 8 21 11 100 11 68 0 101 -3
92 -9 -8 -5 -9 -9 -4 -9 21 0 37 18 29 31 -7 12 -5 12 9 0 9 -7 15 -17 12 -20
-2 -4 2 -8 10 -8 8 0 12 4 9 8 -7 12 199 8 215 -5 11 -8 13 -8 7 2 -10 17 55
17 73 0 11 -11 12 -10 6 0 -5 11 1 13 26 11 19 -2 40 -8 48 -13 11 -8 13 -8 8
1 -5 8 21 11 100 11 68 0 101 -3 92 -9 -8 -5 -9 -9 -4 -9 21 0 37 18 29 31 -7
12 -5 12 9 0 9 -7 15 -17 12 -20 -2 -4 2 -8 10 -8 8 0 12 4 9 8 -7 12 199 8
215 -5 12 -8 13 -8 7 2 -10 16 132 14 153 -2 11 -8 13 -8 8 1 -5 8 21 11 100
11 68 0 101 -3 92 -9 -8 -5 -9 -9 -4 -9 21 0 37 18 29 31 -7 12 -5 12 9 0 9
-7 15 -17 12 -20 -2 -4 2 -8 10 -8 8 0 12 4 9 8 -7 12 199 8 215 -5 10 -7 13
-7 8 0 -4 8 56 11 206 12 117 1 219 4 227 5 35 9 47 20 48 45 2 39 7 60 15 68
4 4 7 2 7 -5 0 -7 4 -9 10 -6 6 3 10 0 10 -7 0 -8 5 -6 11 5 8 14 14 15 24 7
10 -8 15 -8 20 0 5 8 11 8 21 -1 11 -9 14 -8 14 2 0 11 2 11 9 0 8 -12 12 -12
25 -2 12 11 16 11 16 1 0 -10 3 -10 15 0 10 8 15 9 15 2 0 -6 7 -9 15 -6 8 4
12 10 9 15 -3 5 5 5 18 0 26 -9 51 -4 42 10 -3 5 7 9 22 9 23 0 25 2 13 17
-13 15 -12 15 10 4 15 -8 21 -9 17 -2 -4 6 -3 11 3 11 6 0 8 7 5 15 -4 9 0 15
10 15 9 0 13 6 10 14 -3 8 -1 17 5 21 6 3 11 11 11 16 0 6 -6 7 -12 3 -10 -6
-10 -5 -1 7 7 8 10 36 8 67 -2 28 1 54 6 57 5 4 6 -2 2 -12 -3 -10 -2 -15 2
-10 12 10 13 117 2 117 -5 0 -3 8 4 17 8 9 9 14 3 10 -7 -4 -14 0 -17 8 -4 10
-1 12 10 8 11 -4 14 -2 11 8 -3 8 -12 13 -19 11 -9 -1 -8 3 4 11 9 8 17 17 17
20 0 3 -8 8 -17 10 -17 4 -17 5 0 6 10 0 15 6 12 11 -4 6 -12 8 -18 4 -7 -3
-5 0 3 8 16 13 20 51 8 64 -4 3 -6 -3 -3 -14 2 -12 0 -24 -4 -26 -14 -9 -6 55
9 65 13 9 13 10 -1 6 -14 -5 -17 2 -15 41 1 42 -2 47 -19 44 -20 -4 -20 -3 0
12 17 12 18 17 6 28 -12 11 -13 11 -6 -2 5 -8 4 -12 0 -7 -5 4 -10 31 -11 59
-2 28 -5 57 -8 64 -3 8 0 14 6 14 7 0 3 7 -8 16 -10 8 -14 13 -7 10 6 -4 14
-2 18 4 3 5 -1 10 -10 10 -10 0 -13 4 -9 12 13 20 12 47 -2 59 -6 5 -9 19 -6
31 4 16 2 19 -9 13 -11 -7 -12 -6 -2 6 14 17 14 28 2 52 -7 12 -6 17 3 17 8 0
6 5 -4 11 -10 5 -18 17 -18 25 0 9 5 12 11 8 8 -4 8 0 0 15 -7 11 -9 21 -6 21
3 0 1 10 -6 21 -9 17 -8 20 2 14 8 -6 10 -4 4 5 -5 7 -9 34 -11 59 -3 64 -3
63 -14 56 -5 -3 -10 1 -10 10 0 9 4 14 9 10 5 -3 13 0 17 6 4 7 3 9 -4 5 -17
-10 -25 12 -25 70 0 30 -4 54 -9 54 -5 0 -6 -5 -2 -12 4 -6 3 -8 -3 -5 -11 7
-11 56 0 74 4 6 2 15 -4 19 -8 5 -9 3 -4 -6 5 -9 4 -11 -4 -6 -9 6 -9 11 0 22
9 11 8 14 -2 14 -11 0 -11 2 1 10 9 6 10 10 3 10 -11 0 -10 30 1 49 3 5 -2 15
-11 22 -14 12 -16 12 -8 0 5 -9 4 -12 -3 -7 -6 4 -9 13 -6 21 4 8 10 13 14 10
5 -3 6 4 3 15 -3 11 -9 17 -14 14 -13 -8 -11 10 4 25 10 11 9 12 -1 7 -9 -6
-11 -1 -8 17 3 17 -1 27 -11 31 -14 6 -14 8 1 25 12 13 14 21 6 26 -5 3 -7 11
-4 17 5 7 2 9 -7 6 -11 -4 -14 7 -14 58 0 53 -2 61 -14 51 -12 -10 -13 -9 -3
10 14 25 15 36 4 29 -4 -2 -7 12 -6 32 0 20 -4 40 -9 44 -7 4 -7 11 1 20 7 9
8 19 2 28 -5 8 -7 24 -4 35 l6 20 -17 -20 c-16 -19 -16 -19 -1 8 15 25 15 27
-1 27 -15 0 -16 2 -3 10 10 6 11 10 3 10 -7 0 -13 9 -13 21 0 13 4 18 13 14 6
-4 4 0 -6 8 -12 10 -14 16 -6 19 9 3 9 9 0 26 -7 13 -17 19 -23 16 -7 -4 -8
-3 -4 5 4 6 12 9 17 6 5 -4 9 -2 9 4 0 5 -5 11 -10 13 -6 2 -13 18 -15 36 -2
18 0 30 5 27 5 -3 12 -1 15 5 4 6 1 9 -7 8 -7 -2 -12 3 -10 11 2 8 -3 18 -10
22 -10 6 -10 11 -1 20 10 10 9 17 -5 33 -9 11 -12 17 -7 13 6 -3 12 3 12 14 1
11 -5 19 -13 19 -12 0 -12 4 -4 20 9 16 8 20 -5 20 -12 0 -14 4 -6 17 6 12 5
21 -7 31 -16 12 -15 13 2 7 19 -5 19 -5 3 12 -10 12 -17 40 -19 75 -2 31 -6
54 -11 51 -4 -2 -5 -8 -2 -13 3 -5 1 -11 -4 -14 -6 -4 -8 7 -6 24 3 21 1 28
-7 24 -7 -5 -8 -3 -3 5 5 9 19 11 42 6 27 -5 33 -3 27 7 -6 10 -4 10 9 -1 9
-7 29 -11 43 -8 16 3 27 0 31 -9 3 -8 9 -14 15 -14 5 0 6 5 2 11 -5 8 -1 8 14
0 26 -14 45 -14 37 -1 -3 6 -1 10 4 10 6 0 11 -5 11 -11 0 -12 40 -2 55 14 7
7 4 8 -10 3 -16 -6 -17 -5 -8 5 10 10 16 9 29 -2 16 -12 17 -12 12 3 -4 10 -1
19 8 22 8 3 14 12 14 21 0 8 5 15 11 15 5 0 7 -5 3 -12 -4 -7 -3 -8 4 -4 7 4
12 18 12 32 0 14 4 23 9 20 5 -3 12 1 15 10 4 10 2 13 -7 9 -6 -4 -4 0 7 9 10
8 15 20 10 27 -4 8 -3 10 4 5 16 -10 15 7 0 23 -11 10 -10 11 3 6 13 -5 16 -1
14 19 -2 18 3 27 17 32 16 5 18 8 7 15 -11 6 -8 13 11 34 14 15 21 26 15 25
-24 -5 -27 1 -9 15 16 13 17 16 4 25 -9 6 -10 10 -3 10 6 0 13 12 15 28 2 16
8 26 16 24 8 -1 11 2 7 8 -3 6 -11 8 -16 5 -5 -4 -9 -1 -9 4 0 6 6 11 13 11 8
0 9 2 1 8 -16 10 -12 65 6 79 12 10 13 14 2 25 -11 11 -12 10 -7 -4 4 -10 3
-18 -3 -18 -6 0 -9 18 -7 40 2 22 -1 43 -6 46 -6 3 -2 12 8 20 17 13 17 13 0
14 -11 0 -15 5 -11 11 3 6 0 15 -7 20 -10 6 -11 9 -1 9 6 0 12 5 12 11 0 5 -4
7 -10 4 -5 -3 -10 1 -10 9 0 9 -5 16 -11 16 -8 0 -7 6 2 17 12 15 12 16 -3 10
-13 -4 -15 -2 -11 10 4 10 2 14 -4 10 -6 -4 -14 0 -17 9 -4 10 -2 13 7 9 6 -4
3 1 -7 9 -11 9 -16 16 -12 16 4 0 -3 10 -16 23 -16 15 -17 17 -3 7 20 -15 20
-15 1 8 -11 12 -25 22 -33 22 -7 0 -13 7 -13 15 0 8 -6 15 -13 15 -7 0 -25 14
-40 31 -14 17 -31 28 -37 24 -5 -3 -10 -2 -10 2 0 5 -7 18 -16 29 -8 10 -12
12 -8 4 7 -13 6 -13 -12 0 -10 8 -22 19 -25 23 -3 4 -15 9 -27 10 -11 0 -18 5
-16 9 5 8 -11 12 -30 9 -5 -1 -3 5 4 14 11 13 10 15 -4 9 -9 -3 -16 -1 -16 5
0 6 -7 8 -15 5 -9 -4 -15 0 -15 10 0 9 -4 16 -10 16 -5 0 -7 -8 -5 -17 3 -10
-1 -4 -9 12 -12 24 -15 26 -16 10 -1 -18 -1 -19 -11 -2 -5 9 -17 17 -24 17 -8
0 -15 5 -15 10 0 6 -12 10 -26 10 -16 0 -23 4 -18 12 4 6 3 8 -4 5 -15 -10
-43 3 -35 17 4 6 -2 4 -12 -4 -11 -9 -16 -10 -11 -2 5 8 -1 12 -18 12 -14 0
-26 5 -26 11 0 8 -5 7 -15 -1 -13 -11 -14 -10 -8 5 5 14 3 17 -10 12 -8 -3
-18 -1 -21 6 -3 9 -5 9 -5 0 -1 -8 -9 -5 -21 7 -12 12 -33 20 -55 20 -19 0
-35 5 -35 10 0 6 -12 10 -26 10 -16 0 -23 4 -18 12 5 7 3 8 -7 2 -19 -12 -40
-14 -34 -4 3 5 1 11 -5 15 -5 3 -10 0 -10 -7 0 -10 -2 -10 -9 1 -5 7 -14 10
-20 7 -6 -4 -11 -2 -11 4 0 6 -6 10 -12 9 -7 -1 -20 -1 -28 0 -13 1 -13 3 -1
10 10 7 6 9 -15 9 -65 -2 -83 2 -87 20 -4 16 -5 16 -6 0 0 -10 -6 -18 -12 -18
-6 0 -8 8 -5 18 5 14 4 14 -9 -2 -15 -19 -15 -19 -16 5 0 13 -3 18 -6 11 -2
-6 -9 -10 -14 -6 -5 3 -9 -1 -9 -8 0 -8 -5 -6 -11 5 -8 14 -14 16 -25 6 -11
-9 -14 -9 -14 1 0 9 -4 9 -17 -1 -14 -12 -16 -12 -8 0 6 11 3 13 -13 9 -12 -4
-20 -2 -16 3 3 5 0 10 -5 10 -35 4 -46 2 -43 -10 1 -7 -2 -10 -8 -6 -5 3 -10
14 -10 23 0 13 -2 13 -16 -4 -14 -18 -15 -18 -10 6 3 14 3 19 0 13 -3 -8 -24
-13 -50 -13 -31 0 -43 4 -38 11 4 7 1 10 -7 7 -8 -3 -24 -1 -36 3 -18 7 -23 5
-23 -9 -1 -16 -1 -16 -11 1 -6 9 -15 14 -21 11 -6 -4 -14 0 -19 7 -7 12 -9 12
-9 0 0 -11 -3 -11 -17 0 -11 10 -14 10 -9 2 11 -19 -5 -15 -20 5 -12 15 -13
15 -8 0 6 -19 -19 -19 -38 0 -8 8 -19 7 -42 -5 -29 -15 -30 -15 -17 0 16 20 1
23 -18 5 -11 -10 -13 -10 -7 0 8 14 -10 17 -19 2 -3 -5 -12 -10 -18 -10 -7 0
-6 4 3 11 12 9 11 10 -7 6 -13 -3 -26 -1 -29 4 -3 5 -13 5 -24 -1 -12 -6 -21
-6 -25 -1 -6 10 -37 7 -57 -5 -8 -5 -9 -2 -4 11 5 15 4 16 -8 6 -8 -7 -20 -10
-26 -6 -6 4 -17 1 -25 -5 -18 -15 -20 1 -2 20 6 7 1 6 -13 -3 -29 -20 -44 -22
-34 -4 6 9 5 9 -8 0 -8 -7 -18 -10 -21 -6 -4 3 -14 0 -24 -8 -9 -8 -14 -9 -11
-4 4 6 -3 17 -15 25 -20 12 -21 11 -9 -2 10 -13 9 -15 -12 -15 -13 0 -23 5
-22 11 2 6 1 8 -1 3 -3 -4 -10 -4 -15 -1 -7 5 -8 2 -3 -6 5 -8 3 -11 -6 -8 -8
3 -13 11 -11 17 1 7 -2 10 -8 6 -6 -3 -8 -11 -5 -16 4 -5 -3 -9 -14 -9 -15 0
-19 5 -15 18 5 13 4 14 -4 3 -6 -8 -15 -10 -22 -6 -9 5 -11 4 -6 -3 12 -19
-12 -14 -24 6 -11 16 -11 16 -6 -2z m-289 -26 c-3 -5 -1 -10 6 -10 7 0 10 -3
6 -6 -9 -9 -28 6 -22 17 4 5 8 9 11 9 3 0 2 -4 -1 -10z m-1621 -538 c3 -5 -1
-9 -9 -9 -8 0 -12 4 -9 9 3 4 7 8 9 8 2 0 6 -4 9 -8z m1842 -14 c5 -7 2 -8 -7
-3 -8 5 -10 4 -6 0 10 -11 39 -16 32 -5 -3 4 4 10 15 13 11 3 20 1 20 -4 0 -5
-5 -9 -12 -9 -6 0 -9 -3 -6 -6 4 -3 18 2 32 11 14 10 26 13 26 7 0 -6 -6 -13
-12 -16 -7 -2 -3 -4 9 -2 11 1 29 8 39 16 16 14 17 13 10 -4 -7 -20 -7 -20 15
0 18 16 21 16 16 2 -6 -18 7 -18 38 -1 29 16 37 16 45 3 6 -9 13 -9 26 -2 15
8 24 7 38 -6 11 -9 16 -12 13 -6 -4 7 1 14 11 16 21 6 44 -1 38 -11 -3 -4 6
-7 19 -7 13 0 21 4 19 8 -3 5 -10 5 -16 2 -6 -4 -8 -2 -5 4 4 5 16 8 27 5 11
-3 18 -8 16 -12 -2 -3 14 -7 35 -8 30 -2 38 1 33 10 -5 8 -2 7 9 -2 14 -11 17
-11 17 0 0 9 3 10 8 4 4 -6 16 -10 27 -10 11 0 25 -3 32 -8 6 -4 14 -3 18 3 5
8 12 5 21 -7 11 -13 14 -14 12 -3 -2 9 3 13 12 11 8 -2 23 -5 32 -5 10 -1 21
-5 25 -9 11 -12 11 -51 1 -64 -6 -7 -7 -13 -2 -13 5 0 9 -18 10 -40 0 -23 -3
-37 -9 -33 -6 4 -7 1 -2 -8 5 -7 10 -22 10 -31 1 -13 -2 -15 -11 -7 -10 8 -12
6 -9 -10 2 -11 0 -23 -6 -26 -5 -4 -9 0 -9 7 -1 7 -8 1 -16 -14 -16 -30 -27
-38 -17 -12 5 14 3 15 -15 5 -12 -7 -22 -16 -22 -22 0 -6 -5 -7 -10 -4 -6 4
-7 11 -4 17 4 6 -3 4 -16 -5 -19 -13 -27 -14 -39 -4 -12 9 -13 9 -7 0 4 -7 3
-13 -3 -13 -5 0 -13 5 -17 11 -4 7 -9 8 -17 0 -7 -7 -17 -7 -31 1 -20 10 -20
10 -6 -7 14 -17 14 -17 -7 -7 -15 8 -24 9 -28 2 -4 -6 -12 -7 -18 -3 -7 4 -28
8 -47 8 -19 0 -38 4 -41 8 -4 5 -10 4 -13 -2 -4 -6 -2 -11 3 -11 6 0 11 -5 11
-11 0 -8 -4 -9 -13 0 -8 6 -18 7 -22 3 -5 -4 -5 -1 -1 6 4 6 2 12 -4 12 -6 0
-13 -7 -16 -15 -6 -15 -25 -21 -23 -7 3 19 -2 23 -16 12 -8 -7 -15 -9 -15 -5
0 4 -6 2 -14 -4 -10 -9 -15 -8 -20 4 -3 8 -10 15 -16 15 -6 0 -8 -5 -4 -12 4
-6 3 -8 -4 -4 -5 3 -13 0 -16 -6 -3 -7 -4 -2 -1 12 5 21 4 23 -7 8 -11 -15
-14 -15 -37 0 l-26 16 20 -24 c11 -14 13 -19 4 -13 -19 15 -92 25 -84 12 3 -5
-1 -6 -9 -3 -9 3 -16 10 -16 16 0 5 -5 6 -10 3 -8 -5 -7 -12 2 -23 12 -15 11
-15 -11 0 -13 9 -30 14 -37 11 -8 -3 -14 1 -14 8 0 11 -3 11 -10 -1 -5 -8 -10
-10 -10 -5 0 6 -5 3 -10 -5 -8 -12 -10 -12 -10 5 0 17 -2 17 -10 5 -9 -13 -10
-13 -10 0 0 13 -1 13 -11 0 -8 -12 -12 -12 -16 -2 -4 10 -8 10 -21 0 -9 -8
-13 -8 -9 -2 8 13 -23 29 -32 17 -11 -15 -30 -13 -24 3 5 13 0 15 -23 13 -19
-3 -28 0 -27 9 2 6 -1 12 -6 12 -5 0 -7 10 -4 23 l4 22 -13 -22 c-11 -19 -13
-10 -11 70 2 87 3 93 30 116 l28 24 -27 -16 c-19 -12 -29 -14 -34 -5 -4 7 -3
8 4 4 7 -4 12 -3 12 2 0 13 39 22 46 11 3 -6 11 -5 20 2 11 9 14 9 14 0 0 -9
5 -9 20 -1 15 8 20 8 20 -2 0 -9 3 -9 8 -2 4 6 28 10 54 9 30 -1 45 2 41 8 -3
6 -2 7 4 4 23 -14 62 -15 67 -1 7 17 13 18 22 2z m484 2 c8 -5 11 -10 5 -10
-5 0 -17 5 -25 10 -8 5 -10 10 -5 10 6 0 17 -5 25 -10z m-2422 -125 c-3 -3 -9
2 -12 12 -6 14 -5 15 5 6 7 -7 10 -15 7 -18z m1987 -195 c3 -5 1 -10 -4 -10
-6 0 -11 5 -11 10 0 6 2 10 4 10 3 0 8 -4 11 -10z m2059 -1558 c3 -5 -1 -9 -9
-9 -8 0 -15 4 -15 9 0 4 4 8 9 8 6 0 12 -4 15 -8z m31 -202 c-3 -5 -12 -10
-18 -10 -7 0 -6 4 3 10 19 12 23 12 15 0z m105 -694 c0 -3 -4 -8 -10 -11 -5
-3 -10 -1 -10 4 0 6 5 11 10 11 6 0 10 -2 10 -4z m-4100 -246 c0 -5 -5 -10
-11 -10 -5 0 -7 5 -4 10 3 6 8 10 11 10 2 0 4 -4 4 -10z m4155 -380 c3 -5 1
-10 -4 -10 -6 0 -11 5 -11 10 0 6 2 10 4 10 3 0 8 -4 11 -10z m-434 -413 c-10
-9 -11 -8 -5 6 3 10 9 15 12 12 3 -3 0 -11 -7 -18z"/>
<path d="M2516 4172 c-3 -5 1 -9 9 -9 8 0 12 4 9 9 -3 4 -7 8 -9 8 -2 0 -6 -4
-9 -8z"/>
<path d="M1976 4042 c-2 -4 -1 -14 4 -22 7 -11 9 -9 7 8 -1 24 -3 26 -11 14z"/>
<path d="M2495 3880 c-3 -5 -1 -10 4 -10 6 0 11 5 11 10 0 6 -2 10 -4 10 -3 0
-8 -4 -11 -10z"/>
<path d="M1706 4694 c-5 -14 -4 -15 9 -4 17 14 19 20 6 20 -5 0 -12 -7 -15
-16z"/>
<path d="M4510 4241 c0 -6 4 -13 10 -16 6 -3 7 1 4 9 -7 18 -14 21 -14 7z"/>
<path d="M329 3547 c6 -8 7 -18 3 -22 -4 -5 -1 -5 6 -1 10 6 10 11 1 22 -6 8
-14 14 -16 14 -3 0 0 -6 6 -13z"/>
<path d="M4653 3515 c0 -8 4 -12 9 -9 5 3 6 10 3 15 -9 13 -12 11 -12 -6z"/>
<path d="M410 3360 c0 -5 5 -10 11 -10 5 0 7 5 4 10 -3 6 -8 10 -11 10 -2 0
-4 -4 -4 -10z"/>
<path d="M715 3120 c3 -5 8 -10 11 -10 2 0 4 5 4 10 0 6 -5 10 -11 10 -5 0 -7
-4 -4 -10z"/>
<path d="M4315 2840 c3 -5 8 -10 11 -10 2 0 4 5 4 10 0 6 -5 10 -11 10 -5 0
-7 -4 -4 -10z"/>
<path d="M430 1386 c0 -2 7 -7 16 -10 8 -3 12 -2 9 4 -6 10 -25 14 -25 6z"/>
<path d="M4571 1234 c0 -11 3 -14 6 -6 3 7 2 16 -1 19 -3 4 -6 -2 -5 -13z"/>
<path d="M385 896 c1 -49 10 -53 11 -5 1 21 -2 39 -6 39 -3 0 -6 -15 -5 -34z"/>
<path d="M410 566 c0 -7 8 -20 18 -27 15 -13 16 -12 4 3 -8 9 -11 22 -7 28 3
5 1 10 -4 10 -6 0 -11 -6 -11 -14z"/>
</g>
</svg>
