<svg xmlns="http://www.w3.org/2000/svg" xmlns:xlink="http://www.w3.org/1999/xlink" version="1.1" x="0px" y="0px" viewBox="17 -18 100 125" enable-background="new 17 -18 100 100" xml:space="preserve"><path d="M67.7,38.3c4,0,7-3,7-7s-3-7-7-7s-7,3-7,7S63.7,38.3,67.7,38.3z M88.9,17.2c4,0,7-3,7-7s-3-7-7-7s-7,3-7,7  S84.8,17.2,88.9,17.2z M110-3.9c4,0,7-3,7-7s-3-7-7-7c-4,0-7,3-7,7S105.9-3.9,110-3.9z M17.2-4.4C13.8,42,57,85.2,103.4,81.8  l3.3-19.9l-23.2-6.7c-5-1.6-11.6,5-11.6,5C58.7,57,42,40.3,38.7,27.1c0,0,6.7-6.7,5.1-11.6L37.1-7.7L17.2-4.4z"/><text x="17" y="97" fill="#000000" font-size="5px" font-weight="bold" font-family="'Helvetica Neue', Helvetica, Arial-Unicode, Arial, Sans-serif">Created by Thomas Helbig</text><text x="17" y="102" fill="#000000" font-size="5px" font-weight="bold" font-family="'Helvetica Neue', Helvetica, Arial-Unicode, Arial, Sans-serif">from the Noun Project</text></svg>