<svg xmlns="http://www.w3.org/2000/svg" xmlns:xlink="http://www.w3.org/1999/xlink" version="1.1" x="0px" y="0px" viewBox="-489 491 100 125" enable-background="new -489 491 100 100" xml:space="preserve"><path d="M-421.1,533.9c2.9,0,5.4-2.4,5.4-5.4s-2.4-5.4-5.4-5.4c-2.9,0-5.4,2.4-5.4,5.4S-424,533.9-421.1,533.9z M-453.3,533.9  c2.9,0,5.4-2.4,5.4-5.4s-2.4-5.4-5.4-5.4c-2.9,0-5.4,2.4-5.4,5.4S-456.1,533.9-453.3,533.9z M-421.1,517.8c2.9,0,5.4-2.4,5.4-5.4  c0-2.9-2.4-5.4-5.4-5.4c-2.9,0-5.4,2.4-5.4,5.4C-426.5,515.4-424,517.8-421.1,517.8z M-453.3,517.8c2.9,0,5.4-2.4,5.4-5.4  c0-2.9-2.4-5.4-5.4-5.4c-2.9,0-5.4,2.4-5.4,5.4C-458.6,515.4-456.1,517.8-453.3,517.8z M-431.9,553.5v-41.1c0-7.1-10.7-7.1-10.7,0  v26.8c-8.9,1.8-21.4,5.4-28.6,12.5c0,12.5,1.8,26.8,5.4,39.3h28.6c7.1,0,14.3-8.9,30.4-42.9c-7.1-7.1-16.1,10.7-21.4,10.7  C-430.1,558.9-431.9,557.1-431.9,553.5z M-421.1,501.7c2.9,0,5.4-2.4,5.4-5.4c0-2.9-2.4-5.4-5.4-5.4c-2.9,0-5.4,2.4-5.4,5.4  C-426.5,499.3-424,501.7-421.1,501.7z M-437.2,501.7c2.9,0,5.4-2.4,5.4-5.4c0-2.9-2.4-5.4-5.4-5.4c-2.9,0-5.4,2.4-5.4,5.4  C-442.6,499.3-440.1,501.7-437.2,501.7z M-453.3,501.7c2.9,0,5.4-2.4,5.4-5.4c0-2.9-2.4-5.4-5.4-5.4c-2.9,0-5.4,2.4-5.4,5.4  C-458.6,499.3-456.1,501.7-453.3,501.7z"/><text x="-489" y="606" fill="#000000" font-size="5px" font-weight="bold" font-family="'Helvetica Neue', Helvetica, Arial-Unicode, Arial, Sans-serif">Created by Thomas Helbig</text><text x="-489" y="611" fill="#000000" font-size="5px" font-weight="bold" font-family="'Helvetica Neue', Helvetica, Arial-Unicode, Arial, Sans-serif">from the Noun Project</text></svg>